<svg data-v-0dd9719b="" version="1.0" xmlns="http://www.w3.org/2000/svg" xmlns:xlink="http://www.w3.org/1999/xlink" width="100%" height="100%" viewBox="0 0 340.000000 250.000000" preserveAspectRatio="xMidYMid meet" color-interpolation-filters="sRGB" style="margin: auto;"> <rect data-v-0dd9719b="" x="0" y="0" width="100%" height="100%" fill="#fff" fill-opacity="1" class="background"></rect> <rect data-v-0dd9719b="" x="0" y="0" width="100%" height="100%" fill="url(#watermark)" fill-opacity="1" class="watermarklayer"></rect> <g data-v-0dd9719b="" fill="#333" class="icon-text-wrapper icon-svg-group iconsvg" transform="translate(50.60035705566406,95.46575355529785)"><g class="iconsvg-imagesvg" transform="translate(0,0)"><g><rect fill="#333" fill-opacity="0" stroke-width="2" x="0" y="0" width="60" height="59.06848991405534" class="image-rect"></rect> <svg x="0" y="0" width="60" height="59.06848991405534" filtersec="colorsb6075396081" class="image-svg-svg primary" style="overflow: visible;"><svg xmlns="http://www.w3.org/2000/svg" viewBox="0.4385022521018982 -0.000009216904800268821 101.5615005493164 99.98497772216797"><path d="M69.3 59.41l-9.89 9.89L51 77.73 30.46 98.26A6 6 0 0 1 22 89.83L42.56 69.3 51 60.88l9.9-9.9zM102 24.28a6 6 0 0 1-1.75 4.21L77.72 51l-8.42-8.44 22.5-22.5a6 6 0 0 1 10.2 4.22z" fill="#0059cc"></path><path d="M83.64 6a5.94 5.94 0 0 1-1.74 4.21L41.08 51l-8.42-8.42 9.9-9.89L51 24.24 73.48 1.75A6 6 0 0 1 83.64 6zM32.66 59.41L12.13 79.93a6 6 0 0 1-8.42-8.42L24.24 51z" fill="#00dac7"></path><path d="M51 24.24l-8.42 8.43-22.5-22.5A6 6 0 0 1 24.28 0a5.89 5.89 0 0 1 4.2 1.75zM98.25 79.93a5.94 5.94 0 0 1-8.42 0L51 41.09l8.42-8.42 9.9 9.89 8.4 8.44 20.53 20.51a6 6 0 0 1 0 8.42z" fill="#00baec"></path><path d="M51 60.88l-8.44 8.42L1.74 28.49a6 6 0 0 1 8.43-8.43l22.49 22.5L41.08 51zM79.93 98.26a6 6 0 0 1-8.42 0L51 77.73l8.42-8.43 20.51 20.53a6 6 0 0 1 0 8.43z" fill="#00abd8"></path></svg></svg> <!----></g></g> <g transform="translate(67,1.4729976654052734)"><g data-gra="path-name" fill-rule="" class="tp-name iconsvg-namesvg" transform="translate(0,0)"><g transform="scale(1)"><g><path d="M38.07 3.51L38.07 3.51Q29.16 3.46 27.27-23.63L27.27-23.63 4.37-23.63Q2.79-23.63 2.79-25.2 2.79-26.77 4.37-26.77L4.37-26.77 27.09-26.77Q26.82-32.49 26.77-35.77L26.77-35.77Q26.77-37.44 28.39-37.44L28.39-37.44Q30.06-37.44 30.06-35.73L30.06-35.73Q30.06-31.5 30.29-26.77L30.29-26.77 40.63-26.77Q42.21-26.77 42.21-25.2 42.21-23.63 40.63-23.63L40.63-23.63 30.46-23.63Q31.23-12.78 33.25-6.39L33.25-6.39Q35.37 0.22 38.34 0.22L38.34 0.22Q39.55 0.22 39.96-4.14L39.96-4.14Q40.05-5.63 40.55-6.52L40.55-6.52Q41.13-7.69 42.03-7.11L42.03-7.11Q42.52-6.79 42.7-5.71L42.7-5.71Q42.88-4.86 42.8-4.05L42.8-4.05Q42.34 0.27 41.31 1.89 40.27 3.51 38.07 3.51ZM4.37 2.52Q3.06 2.75 2.7 1.17L2.7 1.17Q2.29-0.49 4-0.77L4-0.77 6.3-1.13 6.3-17.14Q6.3-18.68 7.83-18.68L7.83-18.68Q9.36-18.68 9.36-17.14L9.36-17.14 9.36-1.67 14.58-2.61 14.58-20.47Q14.58-22.05 16.2-22.05L16.2-22.05Q17.77-22.05 17.77-20.47L17.77-20.47 17.77-15.79 23.94-15.79Q25.43-15.79 25.43-14.31L25.43-14.31Q25.43-12.78 23.94-12.78L23.94-12.78 17.77-12.78 17.77-3.1Q19.35-3.42 22.63-4L22.63-4Q24.25-4.32 25.06-4.46L25.06-4.46Q26.68-4.77 26.82-3.1L26.82-3.1Q26.95-1.67 25.47-1.4L25.47-1.4Q14.04 0.81 4.37 2.52L4.37 2.52ZM40.18-29.47Q38.97-28.48 38.07-29.56L38.07-29.56Q37.48-30.24 36-31.72L36-31.72Q34.65-33.07 33.52-34.02L33.52-34.02Q32.31-35.05 33.62-36.05L33.62-36.05Q34.56-36.72 35.46-36.05L35.46-36.05Q38.34-33.84 40.55-31.36L40.55-31.36Q41.04-30.82 40.91-30.38L40.91-30.38Q40.81-29.97 40.18-29.47L40.18-29.47ZM21.78-31.9L7.88-31.9Q6.39-31.9 6.39-33.44L6.39-33.44Q6.39-34.92 7.88-34.92L7.88-34.92 21.78-34.92Q23.27-34.92 23.27-33.44L23.27-33.44Q23.27-31.9 21.78-31.9L21.78-31.9ZM61.25 2.79Q59.76 3.42 58.95 2.25L58.95 2.25Q58.37 1.4 58.59 0.83 58.81 0.27 59.85-0.14L59.85-0.14Q66.69-3.06 71.95-8.91L71.95-8.91Q66.33-17.14 63.18-31L63.18-31 62.86-31Q61.29-31 61.29-32.63L61.29-32.63Q61.29-34.2 62.86-34.2L62.86-34.2 82.75-34.2Q85.55-34.2 85-30.82L85-30.82Q82.44-17.37 75.96-8.82L75.96-8.82Q80.28-3.33 86.13-0.36L86.13-0.36Q88.25 0.63 86.98 2.21L86.98 2.21Q86.13 3.33 84.64 2.61L84.64 2.61Q78.39-0.58 73.89-6.25L73.89-6.25Q68.58-0.49 61.25 2.79L61.25 2.79ZM51.98 1.4Q51.03 2.83 49.68 1.67L49.68 1.67Q48.47 0.63 49.27-0.49L49.27-0.49Q50.85-2.88 52.65-5.94L52.65-5.94Q54.81-9.72 56.07-12.2L56.07-12.2Q56.88-13.81 58.19-12.51L58.19-12.51Q59.09-11.61 58.59-10.62L58.59-10.62Q55.48-4.41 51.98 1.4L51.98 1.4ZM74.07-11.56L74.07-11.56Q79.56-19.21 81.77-29.92L81.77-29.92Q82.03-31 81.05-31L81.05-31 66.28-31Q68.98-19.13 74.07-11.56ZM55.48-17.98Q55.03-17.82 54.36-18.31L54.36-18.31Q52.88-19.35 51.8-19.98L51.8-19.98Q50.53-20.75 48.65-21.73L48.65-21.73Q47.25-22.36 48.1-23.67L48.1-23.67Q48.78-24.75 49.99-24.25L49.99-24.25Q53.91-22.36 56.2-20.79L56.2-20.79Q56.74-20.43 56.74-19.93L56.74-19.93Q56.74-19.57 56.38-18.9L56.38-18.9Q55.94-18.13 55.48-17.98ZM58.68-30.87Q57.73-29.43 56.56-30.42L56.56-30.42Q55.75-31 54.05-32.09L54.05-32.09Q52.2-33.21 50.85-33.88L50.85-33.88Q49.45-34.52 50.4-35.91L50.4-35.91Q51.12-36.9 52.2-36.41L52.2-36.41Q55.66-34.83 58.55-32.76L58.55-32.76Q59.49-32.04 58.68-30.87L58.68-30.87ZM115.2 3.24L115.2 3.24Q113.58 3.24 113.58 1.62L113.58 1.62 113.58-31.9Q113.58-33.07 114.3-33.8 115.02-34.52 116.19-34.52L116.19-34.52 128.52-34.52Q129.69-34.52 130.41-33.8 131.13-33.07 131.13-31.9L131.13-31.9 131.13-7.88Q131.13-6.3 130.77-5.49L130.77-5.49Q130.37-4.59 129.33-4.14L129.33-4.14Q128.07-3.6 124.56-3.51L124.56-3.51Q122.31-3.51 121.77-4.95L121.77-4.95Q121-7.06 124.25-6.97L124.25-6.97Q125.59-6.97 126.9-6.97L126.9-6.97Q127.48-7.02 127.66-7.22 127.84-7.42 127.84-7.92L127.84-7.92 127.84-30.29Q127.84-31.23 126.9-31.23L126.9-31.23 117.77-31.23Q116.82-31.23 116.82-30.29L116.82-30.29 116.82 1.62Q116.82 3.24 115.2 3.24ZM109.17-4.72L97.56-4.72Q96.39-4.72 95.67-5.44 94.95-6.17 94.95-7.33L94.95-7.33 94.95-31.59Q94.95-32.49 95.47-32.85 95.98-33.21 96.84-32.85L96.84-32.85 96.97-32.8Q103.05-34.78 107.37-36.95L107.37-36.95Q108.05-37.3 108.59-37.17L108.59-37.17Q109.08-37.03 109.66-36.45L109.66-36.45Q110.52-35.59 110.45-34.99 110.38-34.38 109.31-33.88L109.31-33.88Q104.17-31.72 98.28-30.11L98.28-30.11 98.28-22.05 108.94-22.05Q110.52-22.05 110.52-20.47L110.52-20.47Q110.52-18.86 108.94-18.86L108.94-18.86 98.28-18.86 98.28-8.91Q98.28-7.96 99.22-7.96L99.22-7.96 109.17-7.96Q110.79-7.96 110.79-6.34 110.79-4.72 109.17-4.72L109.17-4.72ZM142.38 3.46L142.38 3.46Q140.76 3.46 140.76 1.84L140.76 1.84 140.76-21.96Q140.76-23.13 141.48-23.85 142.2-24.57 143.37-24.57L143.37-24.57 155.7-24.57 155.7-36Q155.7-37.66 157.41-37.66L157.41-37.66Q159.07-37.66 159.07-36L159.07-36 159.07-24.57 171.81-24.57Q172.98-24.57 173.7-23.85 174.42-23.13 174.42-21.96L174.42-21.96 174.42-0.77Q174.42 0.72 174.06 1.53L174.06 1.53Q173.66 2.34 172.62 2.75L172.62 2.75Q171.18 3.24 167.4 3.33L167.4 3.33Q165.38 3.33 164.88 1.98L164.88 1.98Q164.52 0.99 165.24 0.54L165.24 0.54Q165.87 0.09 167.09 0.14L167.09 0.14Q168.66 0.14 170.24 0.14L170.24 0.14Q171.18 0.09 171.18-0.81L171.18-0.81 171.18-20.47Q171.18-21.42 170.24-21.42L170.24-21.42 144.94-21.42Q144-21.42 144-20.47L144-20.47 144 1.84Q144 3.46 142.38 3.46ZM163.03-4.18L152.01-4.18Q150.84-4.18 150.12-4.91 149.4-5.63 149.4-6.79L149.4-6.79 149.4-14.35Q149.4-15.52 150.12-16.25 150.84-16.96 152.01-16.96L152.01-16.96 163.03-16.96Q164.2-16.96 164.93-16.25 165.65-15.52 165.65-14.35L165.65-14.35 165.65-6.79Q165.65-5.63 164.93-4.91 164.2-4.18 163.03-4.18L163.03-4.18ZM153.36-7.11L153.36-7.11 161.59-7.11Q162.54-7.11 162.54-8.05L162.54-8.05 162.54-13.14Q162.54-14.08 161.59-14.08L161.59-14.08 153.36-14.08Q152.41-14.08 152.41-13.14L152.41-13.14 152.41-8.05Q152.41-7.11 153.36-7.11ZM168.34-26.68Q167.67-25.83 166.54-26.32L166.54-26.32Q164.93-27 165.87-28.26L165.87-28.26Q168.34-31.63 170.28-35.19L170.28-35.19Q170.95-36.59 172.44-36L172.44-36Q174.24-35.32 173.2-33.7L173.2-33.7Q172.31-32.22 171-30.31 169.69-28.39 168.34-26.68L168.34-26.68ZM148.23-26.68Q147.38-26.28 146.86-26.39 146.34-26.5 145.98-27.31L145.98-27.31Q145.13-28.98 144.22-30.33L144.22-30.33Q143.06-32.13 141.97-33.62L141.97-33.62Q140.85-34.96 142.51-35.73L142.51-35.73Q143.69-36.27 144.5-35.32L144.5-35.32Q147.33-31.86 149.09-28.66L149.09-28.66Q149.44-27.95 149.22-27.49L149.22-27.49Q149-27.09 148.23-26.68L148.23-26.68Z" transform="translate(-2.6207075119018555, 37.65999984741211)"></path></g> <!----> <!----> <!----> <!----> <!----> <!----> <!----></g></g> <g data-gra="path-slogan" fill-rule="" class="tp-slogan iconsvg-slogansvg" fill="#333" transform="translate(30.98464584350586,47.16999816894531)"><!----> <!----> <g transform="scale(1, 1)"><g transform="scale(1)"><path d="M5.67-7.13L5.63-7.13L3.66 0L2.44 0L0.19-8.58L1.41-8.58L3.05-1.59L3.09-1.59L5.02-8.58L6.28-8.58L8.20-1.59L8.25-1.59L9.84-8.58L11.11-8.58L8.86 0L7.64 0L5.67-7.13ZM17.86-3.19L17.86-8.58L19.03-8.58L19.03-3.05Q18.89 0.05 15.52 0.14L15.52 0.14Q12.38 0.05 12.23-2.86L12.23-2.86L12.23-8.58L13.41-8.58L13.41-3.19Q13.45-0.84 15.56-0.80L15.56-0.80Q17.86-0.84 17.86-3.19L17.86-3.19ZM21.98-5.06L26.48-5.06L26.48-8.58L27.66-8.58L27.66 0L26.48 0L26.48-3.98L21.98-3.98L21.98 0L20.81 0L20.81-8.58L21.98-8.58L21.98-5.06ZM35.11 0L34.27-2.48L30.80-2.48L29.91 0L28.73 0L31.97-8.58L33.28-8.58L36.38 0L35.11 0ZM32.53-7.31L31.17-3.52L33.84-3.52L32.58-7.31L32.53-7.31ZM38.81-8.58L43.13-1.64L43.13-8.58L44.25-8.58L44.25 0L42.94 0L38.58-6.94L38.53-6.94L38.53 0L37.41 0L37.41-8.58L38.81-8.58ZM56.30-8.58L53.06-3.47L53.06 0L51.89 0L51.89-3.47L48.66-8.58L50.02-8.58L52.45-4.45L54.94-8.58L56.30-8.58ZM57.52-8.58L58.69-8.58L58.69 0L57.52 0L57.52-8.58ZM62.06-8.58L66.38-1.64L66.38-8.58L67.50-8.58L67.50 0L66.19 0L61.83-6.94L61.78-6.94L61.78 0L60.66 0L60.66-8.58L62.06-8.58ZM75.56-6.09L75.56-6.09L74.48-6.09Q74.39-7.73 72.33-7.83L72.33-7.83Q70.41-7.78 70.41-6.33L70.41-6.33Q70.41-5.39 71.44-5.25L71.44-5.25L73.88-4.69Q75.80-4.22 75.80-2.34L75.80-2.34Q75.75 0.05 72.42 0.14L72.42 0.14Q70.59 0.14 69.84-0.61L69.84-0.61Q68.91-1.31 68.95-2.77L68.95-2.77L70.08-2.77Q70.13-0.80 72.42-0.75L72.42-0.75Q74.67-0.80 74.72-2.20L74.72-2.20Q74.91-3.38 72.84-3.75L72.84-3.75L71.06-4.13Q69.23-4.64 69.23-6.19L69.23-6.19Q69.38-8.72 72.23-8.81L72.23-8.81Q75.47-8.81 75.56-6.09ZM78.42-5.06L82.92-5.06L82.92-8.58L84.09-8.58L84.09 0L82.92 0L82.92-3.98L78.42-3.98L78.42 0L77.25 0L77.25-8.58L78.42-8.58L78.42-5.06ZM91.55 0L90.70-2.48L87.23-2.48L86.34 0L85.17 0L88.41-8.58L89.72-8.58L92.81 0L91.55 0ZM88.97-7.31L87.61-3.52L90.28-3.52L89.02-7.31L88.97-7.31ZM95.25-8.58L99.56-1.64L99.56-8.58L100.69-8.58L100.69 0L99.38 0L95.02-6.94L94.97-6.94L94.97 0L93.84 0L93.84-8.58L95.25-8.58ZM108.89-3.61L106.27-3.61L106.27-4.59L110.02-4.59L110.02 0L109.27 0L108.98-1.08Q108 0.09 106.17 0.14L106.17 0.14Q104.44 0.14 103.50-0.75L103.50-0.75Q102.09-2.06 102.14-4.36L102.14-4.36Q102.47-8.63 106.22-8.81L106.22-8.81Q109.41-8.63 109.88-6L109.88-6L108.75-6Q108.28-7.78 106.17-7.83L106.17-7.83Q103.50-7.64 103.36-4.31L103.36-4.31Q103.36-0.75 106.22-0.75L106.22-0.75Q107.25-0.75 108-1.31L108-1.31Q108.94-2.06 108.89-3.61L108.89-3.61Z" transform="translate(-0.1875, 8.8125)"></path></g></g></g></g></g><defs v-gra="od"></defs></svg>